<svg xmlns="http://www.w3.org/2000/svg"><style>:root svg:not(:target){display:none}</style><svg viewBox="0 0 60 60" id="htmlacademy"><path fill="#2E368F" d="M30.2 5h-.2l-19.7 2.1v36.2l19.7 11.7 19.7-11.7v-36.2l-19.5-2.1zm17 36.8-17.2 10.2-17.2-10.2v-14.8l17.1 10.2v1.8l-11.7-7v1.8l11.8 7.1v1.9l-11.8-7v1.8l11.8 7 11.9-7.1v-7.6l5.3-3.2v15.1zm-.1-17-4.7 2.8-2.2 1.3-10.3-6.1v1.8l8.8 5.3h-.1l-.2.1-1.3.7-7.3-4.3v1.8l5.8 3.4-1.4.9-4.3-2.6v1.8l2.9 1.7-2.9 1.7-17-10.1 17-10.2 17.2 10zm.1-1.8-17.3-10.2-17.1 10.2v-13.6l17.2-1.8 17.2 1.8v13.6z"></path></svg><svg viewBox="0 0 139 70" fill="none" id="logo"><path d="M139 0h-139l59.93 65.65a12.7 12.7 0 0 0 19.14 0l59.93-65.65Z" fill="#81B3D3"></path><path d="m36.8.5 32.2 37.7 32.09-37.5-64.29-.2Z" fill="#23A9E1"></path><path d="M61.27 14.63h17.35c-1.3-.8-4.41-4.58-6.01-3.19-.1.1-4.92-5.67-8.03-2.88-2.7 2.48-4-.3-7.02 1.59-3.6 2.39 2 3.68 3.71 4.47Zm26.78-3.49-9.83.1c3.91-4.47 5.62-3.98 9.83-.1Z" fill="#fff"></path><path d="M97.88 3.58v-2.39h2.1l-2.1 2.4Zm-49.34 9.35c.1.1 2.4-2.38 6.11-4.87 3.41-2.29 8.63-4.88 14.45-4.88 5.81 0 11.13 2.69 14.54 4.98 3.7 2.39 6.01 4.77 6.11 4.87l-2.5 2.99c-4.52.6-7.73 3.88-12.14 3.18-2.2-.4-2.3-1.59-2.9-2.88-.5-1-1.31-.8-2.31-1.2-.9-.4-1.5-1.1-3.41-.7-1.6.4-1.8 2.9-3.91 2.8-1.1-.1-1.2-1.6-2.81-3.59-4.11-4.87-7.92-4.18-10.53.3l19.65 23.18-20.35-24.18Zm-8.43-11.74v1.9l-1.6-1.9h1.6Zm54.06 0h3.2v2.99l-3.2 3.78v-6.77Zm-4.12 11.35v-11.35h3.51v7.37l-3.5 3.98c.1 0 0 0 0 0Zm-.5-10.35v9.85c-1.1-1.1-2.3-2.1-3.6-2.99l3.6-6.86Zm-4.1-.3v6.77c-.51-.3-.91-.7-1.51-1-.7-.4-1.4-.9-2.2-1.3l3.7-4.47Zm-4.42-.2v4.28c-1-.5-2.1-1-3.11-1.5l3.1-2.78Zm.6-.5h3.71l-3.7 4.58v-4.58Zm4.31 0h3.61l-3.6 7.07v-7.07Zm-8.82 0h3.9l-3.5 3.09c-.1 0-.2-.1-.3-.1l-.1-2.99Zm-.5.4v2.39c-1-.4-2-.7-3.11-.9l3.1-1.49Zm-4.22 0v1.3l-2.2-.3 2.2-1Zm-6.81 0 2.2 1c-.8 0-1.5.1-2.2.3v-1.3Zm-4.12 0 3.11 1.5c-1.1.2-2.1.5-3.1.89v-2.39Zm3.61 1.2-3.3-1.6h3.3v1.6Zm3.51-.4-2.8-1.3h2.8v1.3Zm.7-1.2h2.91l-2.9 1.3v-1.3Zm3.72 0h3.2l-3.2 1.6v-1.6Zm-12.44 3.09-3.5-3.09h3.9v2.99l-.4.1Zm-3.6-2.59 3.1 2.69c-1.1.4-2.1.9-3.1 1.49v-4.18Zm-4.32.2 3.6 4.48c-1.3.7-2.5 1.49-3.6 2.39v-6.87Zm-4.21.3 3.6 6.96c-1.3 1-2.5 2-3.6 3.19v-10.15Zm3.7 5.97-3.6-7.07h3.6v7.07Zm4.32-2.49-3.71-4.58h3.7v4.58Zm-12.64 1.8-3.2-3.79v-2.49h3.2v6.27Zm.6-6.28h3.52v11.15l-3.51-4.18v-6.97Zm24.88-1.19h-33.2v14.53l32.9 39.7.2-.3 33.09-39v-14.93h-33Z" fill="#491213"></path><path d="m66.39 45.77 2.6-4.18 2.61 4.18-2.6 4.17-2.61-4.17Z" fill="#23A9E1"></path><path d="M74.41 30.44c-3.4-1.99-2.6-3.48.2-4.87 1.5-.7 4.81-3.38 6.12-2.49l-6.32 7.36Zm-2.3 2.5c-2.01-.1-4.32-.4-6.32.1 1.2.29 4.2 1.18 1.4 1.88 1 1.4 2.6 1.3 3.61.1-.4-.2-.7-.5-1-.7 1.1-.3 2.1-.9 2.3-1.39Zm1.2-1.6c-.9-.8-1.9-.8-2.71 0-1.2-2.09-5.42-1.4-7.42-1.7 1.1 2.6 9.63 3.1 10.13 1.7Zm-6.82-2.19c-1.6-.5-6.82-.4-3.41-1.79 1.1-.4 6.72.1 3.4 1.8Zm2-2.98c-.5-1.1.4-2.4 1.7-1.4 1.21.8-.6 2-1.7 1.4Zm-2.9.1c-2.31.7-5.32-.8-1.6-1.5 2.3-.5 4.7.5 1.6 1.5.1 0-.1 0 0 0Zm-2.61-6.17c-.5 1.59-1.5 1.89-1.4 0 .1-2.3 1.6-1.7 3.2-2.59 1.3-.7 2-3.38 4.32-1.8 1 .7 2.2.1 2.5 1.2 0-.1-2.9 6.67-1.3 6.67-3.21 0-1.8-3.78-.6-6.37-1.2.6-3.11 4.28-1.5 4.98-.8 1.1-3.42 2.58-4.72 1.49-1.1-1-.5-2.29-.5-3.58Zm-4.01 2.78c-5.62 0-1.8-8.55.1-8.06 2.2.7 1.9 8.16-.1 8.06Zm-6.22-8.16c-2.6-.1-1.5-2.58.3-3.08 1.7-.5 5.21 1.1 6.42 2.19-1.8.6-4.11.5-6.12.6-.2-2-.7-1.3-.6.3Z" fill="#DC6243"></path><path d="M72 25.67c-2.9-2.99 4.32-2.69 5.52-3.78.8.3 7.02-5.37 8.52-4.98-1.1 1.3-3.4 5.28-5.01 5.28-1.3 0-2.6-.2-3.61.7-1.5 1.39-3.91 2.08-5.42 2.78Z" fill="#F49774"></path><path d="M72.9 22.09c-1.6.9-3.1-2.49-.3-2.2 1.81.2 3.72-.2 5.42.1a5.9 5.9 0 0 1-5.11 2.1Z" fill="#F4B1A4"></path><path d="M51.25 20.8c.3.4.6.79.5 1.39 0 .4-.6 1-.2 1.19l1.5-1.8c-.4-.09-3.51-3.77-3.51-4.17l-2.1 1.1c.1.4.8 0 1.2 0 .5 0 .9.4 1.3.7-1.1.89-3.8 3.27-4.11 3.27-.1 0-.7-.4-.7 0 0 .2.6.7.7.8l1.4 1.7c.4-.2-.1-.5.1-.8.1-.2 3.21-2.69 3.92-3.39Zm-3.41-4.48c.3-.1.4.3.6 0l-1.6-1.9c-.2-.3-.5-.6-.5 0 .1.4-4.02 3.69-4.22 3.79-.3.1-.5-.3-.7.1l1.4 1.69c.2.2.3.4.5.6.2.2.1-.4.1-.4-.1-.3.3-.6.6-.8 1-1 3.51-3.08 3.82-3.08Zm-5.72-.6c-1.1.3-2.4-.1-2.7-1.3-.4-1.19.4-2.38 1.3-3.08.9-.7 2.3-.6 2.8.5.2.5.1 1.1-.1 1.6-.1.29-.4.59 0 .79.6-.7 1.1-1.4 1.7-2.1-.7-.39-1-1.09-1.5-1.68-.6-.7-1.3-1.4-2.3-1.5-1.9-.3-3.61 1.7-3.81 3.39-.1.9.2 1.79.8 2.58.5.6 1.2 1.1 1.6 1.8.2.1 1.8-.7 2.1-.8.21 0 .1-.1.1-.2 0 0-.5.2 0 0Zm25.57 23.48c-.7-.5-2.6-2.99-3-3.48l-.2-.3-.2.1c-.1.1.1.4 0 .6-.5.8-3.72 3.18-3.92 3.38-.4.2-.8-.1-1 .2.5.6 1.8 2.28 2 2.28.3 0 .1-.5.1-.6.1-.2 1.7-1.58 2.31-2.08.2-.2.4.3.6.5.2.3.3.7.2 1-.1.19-.5.59-.2.79.4-.5 1.5-1.8 1.7-2 .2-.2-.4 0-.3-.1-.2.1-.5.2-.7 0-.1 0-.7-.69-.6-.79.3-.2.6-.6 1-.7.6-.1 1 1 1.1 1.4.1.4.1.8-.1 1.1-.1.3-.3.49 0 .59l1.41-1.9c0 .1-.1.1-.2 0 .1.1-.1 0 0 0Zm-9.22-8.86c-.7 0-1.4.3-2.01.8a3.52 3.52 0 0 0-.5 4.78c1.3 1.69 3.4 1.89 5.11.7 1.4-1.2 1.6-3.3.5-4.78-.8-1-2-1.5-3.1-1.5Zm1.2 1.4c.9-.1 1.5.8 1.1 1.79-.4 1-1.4 1.99-2.4 2.39-1.2.5-2.01-.5-1.5-1.7.4-.99 1.4-1.99 2.4-2.38.1 0 .2-.1.4-.1Zm-2.8-4.58c.3 0 .6.4.8 0l-1.41-1.7c-.4.2 0 .4-.1.6-.2.3-1.7.5-2.1.6.1-.4.6-1.69.8-1.79.4-.3.6.3.8-.1l-1.8-2.09c-.2-.2-.4-.7-.6-.4 0 0 0 1-.1 1.1-.11.2-.61 2.39-1.21 2.89-.3.3-1.5 1.29-1.8 1.39-.3.1-.5-.4-.81 0l1.6 1.89c.1.1.4.6.5.6.3.1 0-.6.1-.7.1-.3 1.61-1.8 2.31-1.9.9-.19 2-.49 3.01-.39.2 0-.2 0 0 0Zm24.26 6.67c.1.4.2.9.1 1.29-.1.6-.6 1.89-1.4 1.5-.8-.4-1.4-1.1-2.11-1.7.5-.6 1-1.1 1.9-.8.2.1.4 0 .2-.2-.3-.2-2-1.29-2.1-1.19-.2.2.3.6.1 1-.1.3-.4.5-.6.8-.5-.4-1.2-.8-.7-1.5.4-.4.8-.8 1.4-.9.4-.1 1.2.3 1.3-.1-.7-.3-1.4-.7-2.1-.99.1.5-2.2 2.89-2.7 3.48-.1.1-.41.4-.41.5 0 .3.4.1.4.1.3-.1 4.41 3.28 4.51 3.58.1.2-.1.4 0 .5 0 0 .1.1.2.1.3-.3 2.91-3.88 3.51-3.98l-1.5-2.39c-.4.2-.1.7 0 .9Zm-4.01 4.37c-1.3-.9-3.61.8-4.01 1-.7.3-1.2-.4-.8-1 .3-.5.9-.8 1.5-.8.2 0 .9.1.9 0 .1-.1.1-.1 0-.2-.6-.39-1.1-.79-1.7-1.09-.1.7-.9 1.1-1.3 1.6-.5.6-1.01 1.29-1.01 1.99s.4 1.39 1.1 1.69c.7.4 1.5.1 2.21-.3.4-.3.8-.6 1.2-.8.6-.3 1.5 0 1.3.8-.2.7-.9 1.3-1.6 1.5-.4.1-.8.1-1.2-.1-.3-.1-.6-.5-.8-.1l2.3 1.58c.1-.5.3-.7.7-.99.5-.4.9-.9 1.3-1.4.81-.89 1.11-2.48-.1-3.38Zm17.65-27.95c0 .1 0 .1 0 0l-.9 1-.8.99c-.2.2-.3.3 0 .5.5-.3 3.5 4.77 3.3 5.47-.5.2-4.51-3.29-4.61-3.49 0-.1.2-.7-.1-.6-.1 0-.5.6-.6.7l-.6.7c.2.3.3 0 .6 0 .2.1 1.2.9 1.5 1.1-.5 0-1.7.1-1.9.1-.6.1-.3-.4-.7-.6l-1.5 1.79-.91 1v.1c.2.2.1.1.4 0 .3-.1 4.31 3.18 4.41 3.38.2.3-.1.6.3.8l1.2-1.4c.1-.1.1-.1 0-.1-.3-.2-.3.1-.7.1-.3-.1-2.9-2.19-3.8-2.99l5.3-.2c.2 0 .71.6.71.8-.1.2-.3.4 0 .5.3-.4.6-.7.9-1.1l.1-.2c.1 0 .1-.1.1-.2l.1-.1c.3-.3 1.2-1.29 1.1-1.39-.3-.3-.4.3-.8 0-.2-.2-.8-1.2-.9-1.39-.2-.3.4-.6.6-.7.5-.3 2.1-.8 2.31.2 0 .2-.2.4-.1.5 0 0 .1.2.2.1l2.1-2.59-.2-.2c-.5.5-5.51-1.49-5.81-1.79-.1-.2-.1-.8-.3-.8Zm-.2 2.58c.8.3 1.5.6 2.3 1l-.6.3c-.2.1-.4.3-.6.5l-1.1-1.8Zm-6.62 7.67c-1.1-.1-2.2.4-3 1.29-1.21 1.5-1.11 3.68.4 4.87 1.5 1.2 3.7.9 4.9-.5 1.2-1.49 1.1-3.68-.4-4.87-.5-.4-1.2-.7-1.9-.8Zm-1.4 1.59c.6 0 1.3.4 1.7.7.8.5 2.2 1.68 1.5 2.68 0-.1.1-.1-.1.1-.8.8-2.2.1-2.9-.5-.7-.5-2.01-1.69-1.2-2.68.3-.2.6-.3 1-.3Zm-3.11 4.27c-1.2-.1-2.41.5-3.31 1.6-.6.8-1.3 1.49-1.9 2.29.2.3.5-.1.8.1.3.2 4.1 3.28 4.1 3.48.1.3-.2.4.1.6.1.1 2.91-3.39 3.21-3.99.4-1.09.1-2.38-.8-3.18.1.1.2.1 0 0-.8-.6-1.5-.9-2.2-.9Zm-1.1 1.6h.3c1.4.4 3.4 2.09 2.1 3.58l-.4.4c-.2.2-4.21-2.99-4.01-3.19.4-.5 1.3-.9 2-.8Z" fill="#fff"></path></svg><svg viewBox="0 0 460 350" fill="none" id="text-index"><path d="m165.4 70-.2.2c-1.4 1.5-3 2.2-4.5 2.2l2.8-4.9c1.8-3.1.1-6.1-2.7-6.1-2.3 0-4.1.9-5.8 3.9l-1.5 2.6-1.2 2.1-.2.2c-2.2 2.5-4.3 4.5-5.6 4.5-.7 0-1-.5-.3-1.6l6.4-11.2h2.4l.9-1.4h-2.5l2.8-4.9h-3l-2.8 4.9h-2.7l-.9 1.4h2.7l-6 10.4c-1.3 2.2-.4 4.3 2 4.3 1.7 0 3.7-1.3 5.5-3.1 0 3.8 5.3 4.6 8.5.5h.7c1.8 0 4.6-1.1 6.1-2.9 0-.5-.5-.9-.9-1.1Zm-6.4.2h-.1c-1 0-1.8.8-1.8 1.8 0 .4.1.7.3 1v.1c-1.4 2.4-4.8 2-3.1-1.2l2.3-3.9 1.4-2.4c2.1-3.6 5-2.2 3.2.9l-2.2 3.7Zm47.9-.2-.2.2c-2.2 2.5-4.9 4.5-7 4.5-1.8 0-2.9-1.2-1.6-3.6l.3-.5c1.9.8 5.6.4 7.8-3.5l.4-.7c1.6-2.8.1-4.8-2.4-4.8-2.4 0-4.3 1.3-5.6 3.5l-2.9 5-.2.2c-2.2 2.5-4.3 4.5-5.6 4.5-.7 0-1-.5-.3-1.6l4.3-7.6c1.3-2.3.1-3.9-1.6-3.9-1.3 0-2.7.7-4.2 2.3l4.8-8.3h-3l-8.3 14.3-.2.2c-2.2 2.5-4.3 4.5-5.6 4.5-.7 0-1-.5-.3-1.6l6.4-11.2h2.4l.9-1.4h-2.5l2.8-4.9h-3l-2.8 4.9h-2.7l-.9 1.4h2.7l-6 10.4c-1.3 2.2-.4 4.3 2 4.3 1.2 0 2.5-.6 3.8-1.6l-.8 1.3h3l4.5-7.9c4.6-5.8 6.6-5 5.4-2.8l-3.9 6.8c-1.3 2.2-.4 4.3 2 4.3 1.8 0 3.8-1.4 5.6-3.2.1 1.9 1.7 3.2 4.1 3.2 3.4 0 6.8-2.6 9.2-5.5.1-.6-.4-1-.8-1.2Zm-5.7-4.2c1.7-3 4.8-2.5 3 .6l-.4.7c-1.4 2.4-3.4 2.4-4.5 2l1.9-3.3Zm114.8 4.2-.2.2c-1.1 1.3-2.4 2.4-3.6 3.3 1-2.9.7-7.2 2.6-11.1l-2.2-1.2c-1.2 1.7-3.9 5.6-6.7 8.8l-.2.2c-2.2 2.5-4.3 4.5-5.6 4.5-.7 0-1-.5-.3-1.6l6.4-11.2h-3l-5.3 9.3c-2.3 2.1-4 3.2-4.6 3-.7-.3 0-1.4.4-2.1l5.8-10.2h-3l-4.7 8.1-.2.2c-1.4 1.5-3 2.2-4.5 2.2l2.8-4.9c1.8-3.1.1-6.1-2.7-6.1-2.3 0-4.1.9-5.8 3.9l-1.5 2.6-1.2 2.1-.2.2c-2.2 2.5-4.9 4.5-7 4.5-1.8 0-2.9-1.2-1.6-3.6l.3-.5c1.9.8 5.6.4 7.8-3.5l.4-.7c1.6-2.8.1-4.8-2.4-4.8-2.4 0-4.3 1.3-5.6 3.5l-2.9 5-.2.2c-2.5 2.9-4.6 4.7-7 5.7l6.7-11.5h-1.8c0-1.2-1.3-2.9-3.1-2.9-1.6 0-3.9 1.3-5.1 3.5l-2.9 5-.2.2c-2.2 2.5-4.3 4.5-5.6 4.5-.7 0-1-.5-.3-1.6l3-5.2c1-1.8.5-2.9-.4-4.1l-1.7-2c-.4-.5-.4-1.2.2-1.7l-1.6-1.7c-1.7 1.5-1.8 3.2-.8 4.6l.3.3c-1.3 1.9-3.1 4.4-5.1 6.7l-.2.2c-1.4 1.5-3 2.2-4.5 2.2l2.8-4.9c1.8-3.1.1-6.1-2.7-6.1-2.3 0-4.1.9-5.8 3.9l-1.5 2.6-1.2 2.1-.2.2c-2.5 2.9-4.6 4.7-7 5.7l6.7-11.5h-1.8c0-1.2-1.3-2.9-3.1-2.9-1.6 0-3.9 1.3-5.1 3.5l-4.2 7.3c-1.3 2.2-.4 4.3 2 4.3.8 0 1.8-.4 2.9-1l-.8 1.4c-4 1.2-6.6 2.9-6.6 5.1 0 2.9 4.4 3.5 6.6-.2l2.3-3.9c2.4-.7 4.7-2.2 7.2-4.5 0 3.8 5.3 4.6 8.5.5h.7c1.8 0 4.6-1.1 6.1-2.9 1.4-1.7 2.6-3.2 5-6.4l.4.5c.4.5.5 1.1.2 1.7l-3.2 5.5c-1.3 2.2-.4 4.3 2 4.3 1.5 0 3.2-1 4.8-2.4 0 1.4.9 2.4 2.6 2.4.8 0 1.8-.4 2.9-1l-.7 1.2c-4 1.2-6.6 2.9-6.6 5.1 0 2.9 4.4 3.5 6.6-.2l2.3-3.9c2.4-.8 4.8-2.2 7.3-4.6.1 1.9 1.6 3.2 4.1 3.2 2.4 0 4.9-1.4 6.9-3.2-.1 3.9 5.3 4.7 8.5.6h.7c.9 0 2.2-.3 3.3-.9-.8 2.1-.1 3.5 1.6 3.5 1.6 0 3.5-1.5 4.9-2.9-.3 1.6.7 2.9 2.6 2.9 2.5 0 5.3-2.6 7.8-5.5 1.7-2 3.2-4.1 4.3-5.5-1.2 3.1-.5 8.7-3.4 8.7-1 0-1.4-1.1-1.4-1.1l-1.9 1s.5 2.4 3.3 2.4c.3 0 .5 0 .8-.1h.1c3.1-.4 6.1-2.8 8.3-5.4-.1-.5-.6-1-1.1-1.1Zm-42.9-4.2c1.7-3 4.8-2.5 3 .6l-.4.7c-1.4 2.4-3.4 2.4-4.5 2l1.9-3.3Zm-57.2 15.6c-.6 1.1-1.6 1-1.6.1 0-.8.7-1.7 3-2.6l-1.4 2.5Zm1.4-6.7c-.7 0-1-.5-.3-1.6l4.2-7.3c1.6-2.8 4.8-2.1 3.3.6l-2.3 4c-1.8 2.9-3.7 4.3-4.9 4.3Zm18.4-4.5h-.1c-1 0-1.8.8-1.8 1.8 0 .4.1.7.3 1v.1c-1.4 2.4-4.8 2-3.1-1.2l2.3-3.9 1.4-2.4c2.1-3.6 5-2.2 3.2.9l-2.2 3.7Zm18.8 11.2c-.6 1.1-1.6 1-1.6.1 0-.8.7-1.7 3-2.6l-1.4 2.5Zm1.4-6.7c-.7 0-1-.5-.3-1.6l4.2-7.3c1.6-2.8 4.8-2.1 3.3.6l-2.3 4c-1.8 2.9-3.7 4.3-4.9 4.3Zm29.5-4.5h-.1c-1 0-1.8.8-1.8 1.8 0 .4.1.7.3 1v.1c-1.4 2.4-4.8 2-3.1-1.2l2.3-3.9 1.4-2.4c2.1-3.6 5-2.2 3.2.9l-2.2 3.7Zm-155.1-3.4h-28.9v2h28.9v-2Zm227 0h-28.9v2h28.9v-2Z" fill="#766458"></path><path d="M163.2 0h7.7l-1.2 44.9h-14.5l-2-18.5-2 18.5h-14.6l-1.1-44.9h7.6l.6 37.2h.8l4.9-37.2h7.6l4.9 37.2h.8l.5-37.2Zm31.8 37.2v7.8h-20.9v-45h20.9v7.7h-13.3v10.8h10.6v7.7h-10.6v10.9h13.3v.1Zm21.4 0v7.8h-18.3v-45h7.6v37.2h10.7Zm16.2-8.8 7.7-1.8v13.6c0 2.6-2.2 4.7-4.7 4.7h-11.5c-2.6 0-4.7-2.2-4.7-4.7v-35.5c0-2.6 2.1-4.7 4.7-4.7h11.5c2.5 0 4.7 2.1 4.7 4.7v9.1l-7.7 1.8v-8h-5.5v29.5h5.5v-8.7Zm28.5-28.4c2.5 0 4.7 2.1 4.7 4.7v35.4c0 2.6-2.2 4.7-4.7 4.7h-11.5c-2.6 0-4.7-2.2-4.7-4.7v-35.4c0-2.6 2.1-4.7 4.7-4.7h11.5Zm-3 7.7h-5.5v29.5h5.5v-29.5Zm32.7-7.7h7.6v44.9h-7.6v-22.1l-3.1 11.4h-7.5l-3-11.4v22.1h-7.6v-44.9h7.6l6.8 21.7 6.8-21.7Zm32.3 37.2v7.8h-20.9v-45h20.9v7.7h-13.3v10.8h10.6v7.7h-10.6v10.9h13.3v.1Z" fill="#81B3D3"></path><path d="M44.5 157.6c-3.6-3-8.1-5-12.9-5-3.6 0-8.3 2.1-8.3 6.3 0 4.4 5.3 6.1 8.6 7.1l5 1.5c10.4 3.1 18.5 8.3 18.5 20.4 0 7.4-1.8 15.1-7.7 20.1-5.9 5-13.7 7-21.2 7-9.4 0-18.7-3.2-26.3-8.5l8.1-15.5c4.9 4.3 10.6 7.7 17.3 7.7 4.6 0 9.4-2.3 9.4-7.5 0-5.5-7.6-7.3-11.8-8.5-12.2-3.6-20.2-6.7-20.2-21.2 0-15.2 10.8-25.1 25.8-25.1 7.5 0 16.8 2.4 23.4 6.2l-7.7 15Zm47.3-2.8v12.5h21.9v16.5h-21.9v12.9h23.2v16.5h-42.6v-74.8h42.6v16.5l-23.2-.1Zm37.6-16.4h27.6c20.8 0 38 16.4 38 37.4s-17.3 37.4-38 37.4h-27.6v-74.8Zm19.5 58.3h4.4c11.6 0 21.5-6.4 21.5-20.9 0-13.4-8.8-20.9-21.3-20.9h-4.6v41.8Zm138-22.3c0 24.2-17.4 41.3-41.4 41.3s-41.4-17.1-41.4-41.3c0-22.6 19.9-38.5 41.4-38.5s41.4 15.9 41.4 38.5Zm-62.6.1c0 12.9 9.5 22.3 21.1 22.3 11.6 0 21.1-9.4 21.1-22.3 0-10.3-9.5-19.8-21.1-19.8-11.5 0-21.1 9.5-21.1 19.8Zm72.9-36.1h19.5l35.6 45.8h.2v-45.8h19.5v74.8h-19.5l-35.6-45.9h-.2v45.9h-19.5v-74.8Zm110.1 61.8-5.2 13h-20.6l28.8-74.8h21.2l28.2 74.8h-20.7l-4.9-13h-26.8Zm13.6-38.7h-.2l-8 23.8h16.2l-8-23.8Zm-312.8 126.2c7.7-2.6 8.2-12.2.7-12.2-2.1 0-4.6 1.5-6.3 4.4l-10.2 17.7c-.5.8-.9 1.5-1.5 2.2-2.6-3.6-1.9-9 1.8-11.4l-1.5-1.9c-8 5.1-5.6 19.7 7.7 19.7 11.3 0 16.6-13.6 9.3-18.5Zm-9.4 15.6c-2.3 0-4-.5-5.5-1.3.7-.8 1.3-1.7 1.9-2.7l6.4-11.1 1 .1c8.9 1.9 5.4 15-3.8 15Zm4.1-17.3 3.1-5.3c2.8-4.8 6.3-2 4.4 1.6-1.5 2.8-3.6 3.6-7.5 3.7Z" fill="#fff"></path><path d="M140.2 300c-.6 2.2.6 4.1 3.1 4.1 1.5 0 3.4-1 5.3-2.5.2 1.5 1.4 2.5 3.3 2.5 2 0 4.2-1.4 6.4-3.4-.4 2 .5 3.4 2.4 3.4 2.1 0 4.4-1.9 6.2-3.6-.4 2 .8 3.6 3.2 3.6 3.1 0 6.7-3.4 9.9-7 0-.1-.1-.1-.1-.2 2.1-2.4 3.9-5 5.3-6.8-1.5 3.9-.7 11-4.3 11-1.3 0-1.8-1.4-1.8-1.4l-2.4 1.2s.7 3.1 4.2 3.1c.4 0 .7 0 1.1-.1h.1c2.8-.4 5.5-2.1 7.9-4.2.1 2.5 2 4.3 5.1 4.3 4.3 0 8.6-3.4 11.7-7-.3-.5-.9-1.1-1.4-1.3l-.3.3c-2.7 3.2-6.2 5.7-8.9 5.7-2.3 0-3.7-1.5-2-4.5l.4-.7c2.4 1 7 .5 9.9-4.4l.5-.9c2-3.5.1-6.1-3-6.1s-5.5 1.6-7.1 4.4l-3.7 6.3h-.1l-.3.3c-1.4 1.6-3.1 3.1-4.6 4.1 1.2-3.6.9-9.2 3.3-14l-2.8-1.5c-1.6 2.2-5 7.1-8.4 11.1l.1.1-.1.2c-2.7 3.2-5.4 5.7-7.1 5.7-.8 0-1.3-.6-.4-2.1l8.1-14.2h-3.8l-6.7 11.8c-2.9 2.6-5.1 4.1-5.8 3.8-.9-.4 0-1.8.5-2.6l7.4-12.9h-3.8l-6 10.4c-.1-.1-.2-.1-.3-.2l-.3.3c-2.7 3.2-5.4 5.7-7.1 5.7-.8 0-1.3-.6-.4-2.1l6.1-10.7h-2.2c.1-1.6-1.5-3.8-4-3.8-2 0-4.9 1.6-6.5 4.4l-3.8 6.6c-.2-.2-.4-.3-.6-.4l-.3.3c-2.7 3.2-6.2 5.7-8.9 5.7-2.3 0-3.7-1.5-2-4.5l3.9-6.8c2.2-3.8 6.1-3.1 3.8.8l-.5.9h3.1l.5-.9c2-3.5.1-6.1-3-6.1s-5.5 1.6-7.1 4.4l-3.8 6.5c-.1-.1-.2-.1-.3-.2l-.3.3c-2.7 3.2-6.2 5.7-8.9 5.7-2.3 0-3.7-1.5-2-4.5l.4-.7c2.4 1 7 .5 9.9-4.4l.5-.9c2-3.5.1-6.1-3-6.1s-5.5 1.6-7.1 4.4l-4 6.8c-2.4 4-.3 7.8 4.2 7.8 3.3 0 6.7-2 9.4-4.6-.1 2.6 1.9 4.6 5.1 4.6 3.2-.2 6.3-2 9-4.3Zm58-9.6c2.2-3.8 6.1-3.1 3.8.8l-.5.9c-1.8 3.1-4.3 3-5.7 2.5l2.4-4.2Zm-54.2 9.3 5.3-9.2c2-3.5 6.1-2.6 4.2.8l-3 5.2c-2.3 3.6-4.6 5.3-6.1 5.3-.8-.1-1.3-.6-.4-2.1Zm-24.2-9.3c2.2-3.8 6.1-3.1 3.8.8l-.5.9c-1.8 3.1-4.3 3-5.7 2.5l2.4-4.2Zm128.6 13.7c4.3 0 8.6-3.4 11.7-7-.3-.5-.9-1.1-1.4-1.3l-.3.3c-2.7 3.2-6.2 5.7-8.9 5.7-2.3 0-3.7-1.5-2-4.5l.4-.7c2.4 1 7 .5 9.9-4.4l.5-.9c2-3.5.1-6.1-3-6.1s-5.5 1.6-7.1 4.4l-3.7 6.3s-.1 0-.1-.1l-.3.3c-2.7 3.2-5.4 5.7-7.1 5.7-.8 0-1.3-.6-.4-2.1l5.5-9.6c1.6-2.9.1-5-2-5-1.6 0-3.4.9-5.3 2.9l6.1-10.5h-3.9l-10.7 18.5c-.1-.1-.3-.2-.4-.3l-.3.3c-2.7 3.2-5.4 5.7-7.1 5.7-.8 0-1.3-.6-.4-2.1l8.1-14.2h3.1l1.1-1.8h-3.1l3.6-6.2h-3.8l-3.6 6.2h-3.4l-1.1 1.8h3.5l-7.6 13.2c-1.6 2.8-.5 5.4 2.6 5.4 1.9 0 3.9-1.2 6-3l-1.5 2.6h3.8l5.8-10c5.8-7.3 8.4-6.4 6.8-3.6l-4.9 8.6c-1.6 2.8-.5 5.4 2.6 5.4 2.3 0 4.9-1.8 7.3-4.2 0 2.5 1.9 4.3 5 4.3Zm3.1-13.7c2.2-3.8 6.1-3.1 3.8.8l-.5.9c-1.8 3.1-4.3 3-5.7 2.5l2.4-4.2Zm111.9 5.4-.3.3c-2.7 3.2-5.4 5.7-7.1 5.7-.8 0-1.3-.6-.4-2.1l12.8-22.2h-3.8l-5.6 9.6c-.7-1.1-1.9-2-3.5-2-2 0-4.9 1.6-6.5 4.4l-3.7 6.4c-.1 0-.2-.1-.2-.1l-.3.3c-2.7 3.2-5.4 5.7-7.1 5.7-.8 0-1.3-.6-.4-2.1l5.5-9.6c1.6-2.9.1-5-2-5-1.6 0-3.4.9-5.3 2.8l1.4-2.5h-3.8l-6.1 10.5c-.1-.1-.2-.2-.4-.2l-.3.3c-2.7 3.2-5.4 5.7-7.1 5.7-.8 0-1.3-.6-.4-2.1l6.1-10.7h-1.9c.1-1.6-1.5-3.8-4-3.8-2 0-4.9 1.6-6.5 4.4l-3.7 6.3-.2.2c-2.7 3.2-5.4 5.7-7.1 5.7-.8 0-1.3-.6-.4-2.1l3.8-6.6c1.3-2.3.7-3.6-.5-5.1l-2.1-2.6c-.5-.7-.5-1.5.2-2.2l-2-2.2c-2.2 1.9-2.3 4.1-1 5.8l.3.4c-1.7 2.4-3.9 5.6-6.4 8.5l.3.3c-3.1 3.6-5.8 5.9-8.8 7.2l4.8-8.2h-3.7l-.4.7c-2 3.5-4.3 6.1-7.3 6.1-2.6 0-3.1-2.6-.8-6.5l1.1-1.9c.7.1 1.4.2 2.2.2 13.5 0 20-18.1 8.1-18.1-2.1 0-4.6 1.5-6.3 4.4l-5.9 10.2a6.22 6.22 0 0 1-3.4-5.4c0-1.8.8-3.5 2.4-4.8l-1.2-2.2c-2.7 1.9-3.9 4.5-3.9 7.1 0 3 1.7 5.9 4.8 7.5l-1.1 2c-2.7 4.6-2.2 9.7 3.2 9.7 1.6 0 3-.5 4.1-1.2l-1 1.7c-5.1 1.6-8.3 3.6-8.3 6.5 0 3.6 5.6 4.4 8.3-.3l2.9-5c3.9-1.2 7.8-3.9 12-8.8-.1-.1-.1-.2-.2-.4 1.7-2 3.1-3.9 6-7.8l.5.6c.5.6.7 1.4.2 2.2l-4 7c-1.6 2.8-.5 5.4 2.6 5.4 1.9 0 4-1.2 6-3 0 1.7 1.1 3 3.3 3 1.5 0 3.4-1 5.3-2.5.2 1.5 1.4 2.5 3.3 2.5 1.8 0 3.8-1.1 5.7-2.8l-1.4 2.4h3.8l5.8-10.1c5.8-7.3 8.4-6.3 6.7-3.5l-4.9 8.6c-1.6 2.8-.5 5.4 2.6 5.4 2 0 4.2-1.4 6.4-3.3-.2 1.9 1 3.3 3.3 3.3 1.5 0 3.4-1 5.3-2.5.2 1.5 1.4 2.5 3.3 2.5 3.1 0 6.7-3.4 9.9-7-.4-.2-1.1-.8-1.6-1Zm-77.9-14.2c1.1-1.9 2.4-2.8 3.4-2.8 6 0 1.8 12.3-8.1 12.3h-.8l5.5-9.5Zm-8.1 28.6c-.8 1.4-2.1 1.2-2.1.2s.9-2.1 3.8-3.2l-1.7 3Zm39.7-13.8c-2.3 3.6-4.6 5.3-6.1 5.3-.8 0-1.3-.6-.4-2.1l5.3-9.2c2-3.5 6.1-2.6 4.2.8l-3 5.2Zm36.7-.2c-2.3 3.8-4.6 5.5-6.2 5.5-.8 0-1.3-.6-.4-2.1l5.3-9.2c2-3.5 6.1-2.6 4.2.8l-2.9 5Zm-117.1 35.6-.3.3c-2.7 3.2-5.4 5.7-7.1 5.7-.8 0-1.3-.6-.4-2.1l5.5-9.6c1.6-2.9.1-5-2-5-1.6 0-3.4.9-5.3 2.8l1.4-2.5h-3.8l-6.1 10.6c-.2-.1-.3-.2-.5-.3l-.3.3a7.79 7.79 0 0 1-5.7 2.8l3.6-6.2c2.3-4 .2-7.7-3.4-7.7-2.9 0-5.2 1.2-7.4 5l-1.9 3.2-1.6 2.8c-.1-.1-.2-.1-.3-.2l-.3.3c-3.1 3.6-5.8 5.9-8.8 7.2l10.4-17.8h-3.8l-6.7 11.7c-2.9 2.7-5.2 4.2-5.9 3.9-.9-.4 0-1.8.5-2.6l7.4-12.9h-3.8l-6.1 10.5c-.1-.1-.2-.1-.3-.2l-.3.3c-2.7 3.2-5.4 5.7-7.1 5.7-.8 0-1.3-.6-.4-2.1l5.5-9.6c1.6-2.9.1-5-2-5-1.6 0-3.4.9-5.3 2.8l1.4-2.5h-3.8l-6.1 10.5c-.1-.1-.2-.2-.4-.2l-.3.3c-2.7 3.2-5.4 5.7-7.1 5.7-.8 0-1.3-.6-.4-2.1l6.1-10.7h-2.2c.1-1.6-1.5-3.8-4-3.8-2 0-4.9 1.6-6.5 4.4l-3.9 6.8c-.3-.2-.6-.4-.8-.5l-.3.3c-2.7 3.2-6.1 5.7-9.8 5.7-2.6 0-4.2-2.6-1.9-6.5l1.1-1.9c.7.1 1.4.2 2.2.2 4 0 8.6-2.1 11.6-7.3 1.1-1.9 1.5-3.6 1.5-5.1 0-3.4-2.2-5.7-5-5.7-2.1 0-4.6 1.5-6.3 4.4l-5.9 10.2a6.22 6.22 0 0 1-3.4-5.4c0-1.8.8-3.5 2.4-4.8l-1.2-2.2c-2.7 1.9-3.9 4.5-3.9 7.1 0 3 1.7 5.9 4.8 7.5l-1.1 2c-2.7 4.6-1.1 9.7 4.3 9.7 4.2 0 7.4-1.9 10-4.4-.8 2.4.4 4.4 3.1 4.4 1.5 0 3.4-1 5.3-2.5.2 1.5 1.4 2.5 3.3 2.5 1.8 0 3.8-1.1 5.7-2.8l-1.4 2.4h3.8l5.8-10.1c5.8-7.3 8.4-6.3 6.7-3.5l-4.9 8.6c-1.6 2.8-.5 5.4 2.6 5.4 2 0 4.3-1.4 6.5-3.4-.5 2.1.5 3.4 2.4 3.4 1.8 0 3.9-1.5 5.6-3.1l-2.1 3.6c-5.1 1.5-8.4 3.6-8.4 6.5 0 3.6 5.6 4.4 8.3-.3l2.9-5c3.2-1 6.3-3 9.6-6.2-.5 5.3 6.5 6.5 10.8 1.1h.8c1.4 0 3.3-.5 5-1.5l-2.5 4.4h3.8l5.8-10.1c5.8-7.3 8.4-6.3 6.7-3.5l-4.9 8.6c-1.6 2.8-.5 5.4 2.6 5.4s6.7-3.4 9.9-7c-.1-.3-.8-.9-1.3-1.1Zm-94.4-14.2c1.1-1.9 2.4-2.8 3.4-2.8 1.4 0 2.1.9 2.1 2.3 0 3.5-4.3 9.9-10.2 9.9h-.8l5.5-9.4Zm13.4 14.8c-2.3 3.6-4.6 5.3-6.1 5.3-.8 0-1.3-.6-.4-2.1l5.3-9.2c2-3.5 6.1-2.6 4.2.8l-3 5.2Zm28.8 13.8c-.8 1.4-2.1 1.2-2.1.2s.9-2.1 3.8-3.2l-1.7 3Zm25.6-14.2h-.2c-1.2 0-2.2 1-2.2 2.3 0 .5.1.9.4 1.3v.1c-1.8 3.1-6.1 2.5-3.9-1.5l2.9-5 1.8-3.1c2.7-4.5 6.3-2.7 4 1.2l-2.8 4.7Zm114.5 1.1c-.2-.6-.9-1.2-1.4-1.3l-.3.3c-1.4 1.6-3.1 3.1-4.6 4.1 1.2-3.6.9-9.2 3.3-14l-2.8-1.5c-1.6 2.2-5 7.1-8.4 11.1l-.3.3c-2.7 3.2-5.4 5.7-7.1 5.7-.8 0-1.6-.8-1.6-2.6v-1.6c2.7.3 5.5-1.4 7.3-4.5l1-1.8c3.5-6.1-2.2-8.1-6.1-4.5l5.4-9.4h-3.8l-10.8 18.8c-.2-.2-.5-.4-.7-.5l-.3.3c-2.7 3.2-6.2 5.7-8.9 5.7-2.3 0-3.7-1.5-2-4.5l3.9-6.8c2.2-3.8 6.1-3.1 3.8.8l-.5.9h3.1l.5-.9c2-3.5.1-6.1-3-6.1s-5.5 1.6-7.1 4.4l-3.7 6.4c-.1 0-.2-.1-.2-.1l-.3.3c-2.7 3.2-5.4 5.7-7.1 5.7-.8 0-1.3-.6-.4-2.1l8.1-14.2h-3.8l-6.7 11.8c-2.9 2.6-5.1 4.1-5.8 3.8-.9-.4 0-1.8.5-2.6l7.4-12.9h-3.8l-7.4 12.7c-.8.7-1.7 1.4-2.4 2 1.2-3.6.9-9.2 3.3-14l-2.8-1.5c-1.6 2.2-10.3 13.8-13.8 17.8.3.5.9.9 1.4 1.3 2.2-2.5 9.4-11.8 10.7-13.6-1.5 3.9-.7 11-4.3 11-1.3 0-1.8-1.4-1.8-1.4l-2.4 1.2s.7 3.1 4.2 3.1c.4 0 .7 0 1.1-.1h.1c1.9-.3 3.8-1.1 5.6-2.4 0 1.5.9 2.5 2.5 2.5 2.1 0 4.4-1.9 6.2-3.6-.4 2 .8 3.6 3.2 3.6 2.4 0 5-1.9 7.5-4.4 0 2.5 2 4.4 5.1 4.4 3.1 0 6.1-1.7 8.8-4l-2.1 3.7h3.8l4.3-7.5v3c0 3.2.6 4.9 3.7 4.9s6.7-3.4 9.9-7c2.2-2.5 4-5.1 5.4-6.9-1.5 3.9-.7 11-4.3 11-1.3 0-1.8-1.4-1.8-1.4l-2.4 1.2s.7 3.1 4.2 3.1c.4 0 .7 0 1.1-.1h.1c3.8-.7 7.7-3.8 10.5-7.1Zm-25.2-3 1.1-1.9c4.4-6.1 7.4-4.4 6-2.1l-1.8 3.1c-1.1 2-4.4 3.4-5.3.9Zm25.1 5.6c-1.2 0-2.2 1-2.2 2.2 0 1.2.9 2.2 2.2 2.2 1.2 0 2.2-.9 2.2-2.2 0-1.2-1-2.2-2.2-2.2Zm.2-1.5h3.8l11.9-20.7h-3.8l-11.9 20.7Zm-244.3-56.6c0 .3-.1.6-.2.9-.1.3-.3.6-.5.8-.2.2-.5.4-.8.6-.3.1-.7.2-1.1.2-.5 0-.9-.1-1.3-.3-.4-.2-.8-.4-1.1-.7-.3-.3-.4-.6-.6-1-.1-.4-.2-.8-.2-1.3 0-.9.2-1.6.5-2.4.3-.7.7-1.4 1.3-1.9.2-.2.5-.5.8-.7.3-.2.6-.4.9-.5.3-.1.5-.3.7-.4.2-.1.3-.1.4-.2l1.4 2c-.2.1-.5.2-.8.4-.3.1-.6.3-.9.5-.3.2-.5.5-.7.8-.2.3-.3.6-.3 1 .7 0 1.2.2 1.7.6.6.3.8.9.8 1.6Zm7.9 0c0 .3-.1.6-.2.9-.1.3-.3.6-.5.8-.2.2-.5.4-.8.6-.3.1-.7.2-1.1.2-.5 0-.9-.1-1.3-.3-.4-.2-.8-.4-1.1-.7-.2-.3-.4-.6-.6-1-.1-.4-.2-.8-.2-1.3 0-.9.2-1.6.5-2.4.3-.7.7-1.4 1.3-1.9.2-.2.5-.5.8-.7.3-.2.6-.4.9-.5.3-.1.5-.3.7-.4.2-.1.3-.1.4-.2l1.4 2c-.2.1-.5.2-.8.4-.3.1-.6.3-.9.5-.3.2-.5.5-.7.8-.2.3-.3.6-.3 1 .7 0 1.2.2 1.7.6.5.3.8.9.8 1.6Zm265.1 58.9c0-.3.1-.6.2-.9.1-.3.3-.6.5-.8.2-.2.5-.4.8-.6.3-.1.7-.2 1.1-.2.5 0 .9.1 1.3.3.4.2.8.4 1.1.7.3.3.4.6.6 1 .1.4.2.8.2 1.3 0 .9-.2 1.6-.5 2.4-.3.7-.7 1.4-1.3 1.9-.2.2-.5.5-.8.7-.3.2-.6.4-.9.5-.3.1-.5.3-.7.4-.2.1-.3.1-.4.2l-1.4-2c.2-.1.5-.2.8-.4.3-.1.6-.3.9-.5.3-.2.5-.5.7-.8.2-.3.3-.6.3-1-.7 0-1.2-.2-1.7-.6-.5-.3-.8-.9-.8-1.6Zm-7.8 0c0-.3.1-.6.2-.9.1-.3.3-.6.5-.8.2-.2.5-.4.8-.6.3-.1.7-.2 1.1-.2.5 0 .9.1 1.3.3.4.2.8.4 1.1.7.2.3.4.6.6 1 .1.4.2.8.2 1.3 0 .9-.2 1.6-.5 2.4-.3.7-.7 1.4-1.3 1.9-.2.2-.5.5-.8.7-.3.2-.6.4-.9.5-.3.1-.5.3-.7.4-.2.1-.3.1-.4.2l-1.4-2c.3-.1.5-.2.8-.4.3-.1.6-.3.9-.5.3-.2.5-.5.7-.8.2-.3.3-.6.3-1-.7 0-1.2-.2-1.7-.6-.6-.3-.8-.9-.8-1.6Z" fill="#fff"></path></svg></svg>